# xmcd
#
# Track frame offsets:
#	150
#	17024
#	39332
#	54452
#	77761
#	87172
#	111728
#	126276
#	137844
#	154350
#	176281
#	195090
#	212126
#	233113
#	252023
#	269682
#	281381
#
# Disc length: 3910 seconds
#
# Revision: 0
# Processed by: cddbd v1.5.1PL0 Copyright (c) Steve Scherf et al.
# Submitted via: dBpowerAMP V4.0
#
DISCID=e90f4411
DTITLE=Various Artist - The Best Smooth Jazz ...Ever !  [CD1)
DYEAR=2003
DGENRE=Smooth Jazz
TTITLE0=Canteloop - US3
TTITLE1=The Beat Goes On - Buddy Rich
TTITLE2=California Dreaming - Bobby Womack
TTITLE3=Light My Fire - Minnie Riperton and Jose Feliciano
TTITLE4=Ain't No Sunshine - Bill Withers
TTITLE5=I Can't Stand The Rain - Cassandra Wilson
TTITLE6=We Have All The Time In The World - Louis Armstrong
TTITLE7=Fly Me To The Moon - Julie London
TTITLE8=I Wish I Knew How It Would Feel To Be Free - Billy Taylor
TTITLE9=Always There - Ronnie Laws
TTITLE10=More Than This - Charlie Hunter with Norah Jones
TTITLE11=Sure Thing - St. Germain
TTITLE12=Inner City Blues - Paul Jackson Jr.
TTITLE13=I Heard It Through The Grapevine - Earl Klugh
TTITLE14=Don't Worry Be Happy - Bobby McFerrin
TTITLE15=Work Song - Nina Simone
TTITLE16=Nature Boy - Nat King Cole
EXTD=
EXTT0=
EXTT1=
EXTT2=
EXTT3=
EXTT4=
EXTT5=
EXTT6=
EXTT7=
EXTT8=
EXTT9=
EXTT10=
EXTT11=
EXTT12=
EXTT13=
EXTT14=
EXTT15=
EXTT16=
PLAYORDER=
